<svg width="110" height="30" viewBox="0 0 110 30" fill="none" xmlns="http://www.w3.org/2000/svg">
<path d="M0.87207 29V1.23199H6.68307C7.95707 1.23199 9.03607 1.42699 9.92007 1.81699C10.8301 2.20699 11.5711 2.72699 12.1431 3.37699C12.7151 4.02699 13.1181 4.78099 13.3521 5.63899C13.6121 6.47099 13.7421 7.34199 13.7421 8.25199V9.26599C13.7421 10.02 13.6771 10.657 13.5471 11.177C13.4431 11.697 13.2741 12.152 13.0401 12.542C12.5981 13.27 11.9221 13.894 11.0121 14.414C11.9481 14.856 12.6371 15.506 13.0791 16.364C13.5211 17.222 13.7421 18.392 13.7421 19.874V21.434C13.7421 23.878 13.1441 25.75 11.9481 27.05C10.7781 28.35 8.89307 29 6.29307 29H0.87207ZM4.85007 16.13V25.022H6.56607C7.37207 25.022 7.99607 24.905 8.43807 24.671C8.90607 24.437 9.25707 24.112 9.49107 23.696C9.72507 23.28 9.86807 22.786 9.92007 22.214C9.97207 21.642 9.99807 21.018 9.99807 20.342C9.99807 19.64 9.95907 19.029 9.88107 18.509C9.80307 17.989 9.64707 17.547 9.41307 17.183C9.15307 16.819 8.80207 16.559 8.36007 16.403C7.91807 16.221 7.33307 16.13 6.60507 16.13H4.85007ZM4.85007 4.97599V12.62H6.64407C7.97007 12.62 8.85407 12.295 9.29607 11.645C9.76407 10.969 9.99807 9.99399 9.99807 8.71999C9.99807 7.47199 9.73807 6.53599 9.21807 5.91199C8.72407 5.28799 7.81407 4.97599 6.48807 4.97599H4.85007Z" fill="#D23927"/>
<path d="M18.3745 29V1.23199H22.3525V29H18.3745Z" fill="#D23927"/>
<path d="M25.7105 29V25.49L33.1985 4.97599H26.1005V1.23199H37.5275V4.39099L29.8835 25.256H37.5275V29H25.7105Z" fill="#D23927"/>
<path d="M40.7648 29V1.23199H44.5868L49.6958 15.935H49.7738L54.8438 1.23199H58.7048V29H54.7268V12.113H54.6488L50.7098 24.047H48.7208L44.8208 12.113H44.7428V29H40.7648Z" fill="#D23927"/>
<path d="M71.2497 19.289L69.2997 9.22699H69.2217L67.2717 19.289H71.2497ZM61.4217 29L67.6227 1.23199H70.9377L77.1387 29H73.1607L71.9907 23.033H66.5697L65.3997 29H61.4217Z" fill="#D23927"/>
<path d="M79.8775 29V1.23199H85.8445C86.9365 1.23199 87.8985 1.37499 88.7305 1.66099C89.5625 1.94699 90.3165 2.45399 90.9925 3.18199C91.6685 3.90999 92.1365 4.76799 92.3965 5.75599C92.6565 6.71799 92.7865 8.03099 92.7865 9.69499C92.7865 10.943 92.7085 11.996 92.5525 12.854C92.4225 13.712 92.1235 14.518 91.6555 15.272C91.1095 16.182 90.3815 16.897 89.4715 17.417C88.5615 17.911 87.3655 18.158 85.8835 18.158H83.8555V29H79.8775ZM83.8555 4.97599V14.414H85.7665C86.5725 14.414 87.1965 14.297 87.6385 14.063C88.0805 13.829 88.4055 13.504 88.6135 13.088C88.8215 12.698 88.9385 12.217 88.9645 11.645C89.0165 11.073 89.0425 10.436 89.0425 9.73399C89.0425 9.08399 89.0295 8.47299 89.0035 7.90099C88.9775 7.30299 88.8605 6.78299 88.6525 6.34099C88.4445 5.89899 88.1325 5.56099 87.7165 5.32699C87.3005 5.09299 86.7025 4.97599 85.9225 4.97599H83.8555Z" fill="#D23927"/>
<path d="M109.409 9.22699H105.431V8.32999C105.431 7.41999 105.21 6.63999 104.768 5.98999C104.352 5.31399 103.637 4.97599 102.623 4.97599C102.077 4.97599 101.635 5.07999 101.297 5.28799C100.959 5.49599 100.686 5.75599 100.478 6.06799C100.27 6.40599 100.127 6.79599 100.049 7.23799C99.9714 7.65399 99.9324 8.09599 99.9324 8.56399C99.9324 9.10999 99.9454 9.56499 99.9714 9.92899C100.023 10.293 100.127 10.618 100.283 10.904C100.439 11.19 100.66 11.437 100.946 11.645C101.258 11.853 101.674 12.061 102.194 12.269L105.236 13.478C106.12 13.816 106.835 14.219 107.381 14.687C107.927 15.129 108.356 15.649 108.668 16.247C108.954 16.871 109.149 17.586 109.253 18.392C109.357 19.172 109.409 20.069 109.409 21.083C109.409 22.253 109.292 23.345 109.058 24.359C108.824 25.347 108.447 26.192 107.927 26.894C107.381 27.622 106.666 28.194 105.782 28.61C104.898 29.026 103.819 29.234 102.545 29.234C101.583 29.234 100.686 29.065 99.8544 28.727C99.0224 28.389 98.3074 27.921 97.7094 27.323C97.1114 26.725 96.6304 26.036 96.2664 25.256C95.9284 24.45 95.7594 23.579 95.7594 22.643V21.161H99.7374V22.409C99.7374 23.137 99.9454 23.8 100.361 24.398C100.803 24.97 101.531 25.256 102.545 25.256C103.221 25.256 103.741 25.165 104.105 24.983C104.495 24.775 104.794 24.489 105.002 24.125C105.21 23.761 105.327 23.332 105.353 22.838C105.405 22.318 105.431 21.746 105.431 21.122C105.431 20.394 105.405 19.796 105.353 19.328C105.301 18.86 105.197 18.483 105.041 18.197C104.859 17.911 104.612 17.677 104.3 17.495C104.014 17.313 103.624 17.118 103.13 16.91L100.283 15.74C98.5674 15.038 97.4104 14.115 96.8124 12.971C96.2404 11.801 95.9544 10.345 95.9544 8.60299C95.9544 7.56299 96.0974 6.57499 96.3834 5.63899C96.6694 4.70299 97.0984 3.89699 97.6704 3.22099C98.2164 2.54499 98.9054 2.01199 99.7374 1.62199C100.595 1.20599 101.609 0.997986 102.779 0.997986C103.767 0.997986 104.664 1.17999 105.47 1.54399C106.302 1.90799 107.017 2.38899 107.615 2.98699C108.811 4.23499 109.409 5.66499 109.409 7.27699V9.22699Z" fill="#D23927"/>
</svg>
